<?xml version="1.0" encoding="UTF-8" standalone="no"?>
<svg
   xmlns:dc="http://purl.org/dc/elements/1.1/"
   xmlns:cc="http://creativecommons.org/ns#"
   xmlns:rdf="http://www.w3.org/1999/02/22-rdf-syntax-ns#"
   xmlns:svg="http://www.w3.org/2000/svg"
   xmlns="http://www.w3.org/2000/svg"
   xmlns:sodipodi="http://sodipodi.sourceforge.net/DTD/sodipodi-0.dtd"
   xmlns:inkscape="http://www.inkscape.org/namespaces/inkscape"
   version="1.1"
   id="svg2"
   xml:space="preserve"
   width="641.33331"
   height="641.33331"
   viewBox="0 0 641.33331 641.33331"
   sodipodi:docname="vkontakte-seeklogo.com.eps"><metadata
     id="metadata8"><rdf:RDF><cc:Work
         rdf:about=""><dc:format>image/svg+xml</dc:format><dc:type
           rdf:resource="http://purl.org/dc/dcmitype/StillImage" /></cc:Work></rdf:RDF></metadata><defs
     id="defs6" /><sodipodi:namedview
     pagecolor="#ffffff"
     bordercolor="#666666"
     borderopacity="1"
     objecttolerance="10"
     gridtolerance="10"
     guidetolerance="10"
     inkscape:pageopacity="0"
     inkscape:pageshadow="2"
     inkscape:window-width="640"
     inkscape:window-height="480"
     id="namedview4" /><g
     id="g10"
     inkscape:groupmode="layer"
     inkscape:label="ink_ext_XXXXXX"
     transform="matrix(1.3333333,0,0,-1.3333333,0,641.33333)"><g
       id="g12"
       transform="scale(0.1)"><path
         d="M 741.184,4810 H 4068.82 C 4478.15,4810 4810,4478.16 4810,4068.82 V 741.18 C 4810,331.852 4478.15,0 4068.82,0 H 741.184 C 331.844,0 0,331.852 0,741.18 V 4068.82 C 0,4478.16 331.844,4810 741.184,4810"
         style="fill:#4d71a9;fill-opacity:1;fill-rule:nonzero;stroke:none"
         id="path14" /><path
         d="m 2364.64,1442.85 h 196.76 c 0,0 59.42,6.55 89.8,39.24 27.92,30.05 27.03,86.43 27.03,86.43 0,0 -3.85,264 118.66,302.88 120.82,38.32 275.93,-255.15 440.32,-368 124.32,-85.38 218.79,-66.69 218.79,-66.69 l 439.6,6.14 c 0,0 229.96,14.19 120.91,195 -8.92,14.76 -63.52,133.74 -326.86,378.18 -275.67,255.85 -238.72,214.45 93.32,657.01 202.21,269.51 283.04,434.04 257.78,504.51 -24.06,67.13 -172.8,49.4 -172.8,49.4 l -494.96,-3.06 c 0,0 -36.72,4.99 -63.92,-11.28 -26.6,-15.92 -43.67,-53.1 -43.67,-53.1 0,0 -78.37,-208.54 -182.81,-385.93 -220.4,-374.24 -308.55,-394.05 -344.57,-370.78 -83.82,54.17 -62.87,217.56 -62.87,333.68 0,362.69 55.01,513.92 -107.13,553.06 -53.8,12.98 -93.43,21.57 -231.03,22.98 -176.62,1.79 -326.07,-0.55 -410.71,-42.01 -56.31,-27.58 -99.76,-89.01 -73.29,-92.55 32.73,-4.36 106.8,-19.99 146.07,-73.43 50.74,-69.03 48.96,-223.98 48.96,-223.98 0,0 29.15,-426.95 -68.06,-479.97 -66.71,-36.38 -158.24,37.88 -354.74,377.42 -100.66,173.92 -176.69,366.18 -176.69,366.18 0,0 -14.64,35.93 -40.79,55.16 -31.71,23.3 -76.03,30.68 -76.03,30.68 l -470.358,-3.07 c 0,0 -70.59,-1.97 -96.532,-32.68 -23.082,-27.33 -1.843,-83.79 -1.843,-83.79 0,0 368.213,-861.51 785.183,-1295.66 382.37,-398.09 816.48,-371.97 816.48,-371.97"
         style="fill:#ffffff;fill-opacity:1;fill-rule:nonzero;stroke:none"
         id="path16" /></g></g></svg>
