<?xml version="1.0" encoding="utf-8"?>
<svg version="1.1" xmlns:xlink="http://www.w3.org/1999/xlink" width="68px" height="67px" xmlns="http://www.w3.org/2000/svg">
  <g transform="matrix(1 0 0 1 -1695 -8 )">
    <path d="M 1729 9  C 1747.48 9  1762 23.3  1762 41.5  C 1762 59.7  1747.48 74  1729 74  C 1710.52 74  1696 59.7  1696 41.5  C 1696 23.3  1710.52 9  1729 9  Z " fill-rule="nonzero" fill="#ffffff" stroke="none" />
    <path d="M 1729 9  C 1747.48 9  1762 23.3  1762 41.5  C 1762 59.7  1747.48 74  1729 74  C 1710.52 74  1696 59.7  1696 41.5  C 1696 23.3  1710.52 9  1729 9  Z " stroke-width="2" stroke="#000000" fill="none" />
  </g>
</svg>