<?xml version="1.0" encoding="utf-8"?>
<svg version="1.1" xmlns:xlink="http://www.w3.org/1999/xlink" width="68px" height="68px" xmlns="http://www.w3.org/2000/svg">
  <g transform="matrix(1 0 0 1 -1781 -8 )">
    <path d="M 1815 9  C 1833.48 9  1848 23.52  1848 42  C 1848 60.48  1833.48 75  1815 75  C 1796.52 75  1782 60.48  1782 42  C 1782 23.52  1796.52 9  1815 9  Z " fill-rule="nonzero" fill="#ffffff" stroke="none" />
    <path d="M 1815 9  C 1833.48 9  1848 23.52  1848 42  C 1848 60.48  1833.48 75  1815 75  C 1796.52 75  1782 60.48  1782 42  C 1782 23.52  1796.52 9  1815 9  Z " stroke-width="2" stroke="#000000" fill="none" />
  </g>
</svg>