<?xml version="1.0" encoding="utf-8"?>
<svg version="1.1" xmlns:xlink="http://www.w3.org/1999/xlink" width="300px" height="300px" xmlns="http://www.w3.org/2000/svg">
  <g transform="matrix(1 0 0 1 -89 -176 )">
    <path d="M 89 176  L 389 176  L 389 476  L 89 476  L 89 176  " fill-rule="nonzero" fill="#cccccc" stroke="none" />
    <path d="M 110 197  L 368 197  L 368 455  L 110 455  L 110 197  " fill-rule="nonzero" fill="#ffffff" stroke="none" />
    <path d="M 267.5 266  C 254.9 266  245 256.1  245 243.5  C 245 230.9  254.9 221  267.5 221  C 280.1 221  290 230.9  290 243.5  C 290 256.1  280.1 266  267.5 266  " fill-rule="nonzero" fill="#cccccc" stroke="none" />
    <path d="M 118 448  L 118 314.35  L 178.75 253.6  L 263.8 302.2  L 312.4 290.05  L 361 302.2  L 361 448  L 118 448  " fill-rule="nonzero" fill="#169bd5" stroke="none" />
  </g>
</svg>