<?xml version="1.0" encoding="utf-8"?>
<svg version="1.1" xmlns:xlink="http://www.w3.org/1999/xlink" width="300px" height="170px" xmlns="http://www.w3.org/2000/svg">
  <g transform="matrix(1 0 0 1 -167 -567 )">
    <path d="M 167 567  L 467 567  L 467 737  L 167 737  L 167 567  " fill-rule="nonzero" fill="#cccccc" stroke="none" />
    <path d="M 179 579  L 455 579  L 455 725  L 179 725  L 179 579  " fill-rule="nonzero" fill="#ffffff" stroke="none" />
    <path d="M 335.75 618  C 328.61 618  323 612.39  323 605.25  C 323 598.11  328.61 592.5  335.75 592.5  C 342.89 592.5  348.5 598.11  348.5 605.25  C 348.5 612.39  342.89 618  335.75 618  " fill-rule="nonzero" fill="#cccccc" stroke="none" />
    <path d="M 184 721  L 184 645.65  L 250.75 611.4  L 344.2 674.42  L 397.6 631.95  L 451 674.42  L 451 721  L 184 721  " fill-rule="nonzero" fill="#169bd5" stroke="none" />
  </g>
</svg>